<svg width="1001" height="626" viewBox="0 0 1001 626" fill="none" xmlns="http://www.w3.org/2000/svg">
<path d="M171.959 592.45C162.918 596.118 154.164 599.569 145.714 602.719C123.129 611.139 102.799 617.376 85.0152 619.876C67.2294 622.376 52.1436 621.116 39.9307 614.715C27.7538 608.332 18.2049 596.715 11.7191 578.022C5.22279 559.298 1.83333 533.559 1.95997 499.12C2.97231 223.808 226.977 1.44422 502.29 2.45657C777.602 3.46892 999.966 227.474 998.953 502.786C998.827 537.225 995.23 562.937 988.566 581.612C981.913 600.256 972.236 611.802 959.959 618.096C947.645 624.409 932.487 625.558 914.653 622.926C896.821 620.295 876.467 613.909 853.873 605.323C843.67 601.445 833.028 597.127 821.974 592.513C830.805 516.796 794.803 442.348 734.893 386.726C674.677 330.82 590.162 293.781 502.22 293.458C414.408 293.135 331.856 318.379 271.227 368.624C210.769 418.727 172.22 493.604 171.959 592.45ZM208.08 577.461C233.19 565.254 264.739 551.598 304.563 539.258C274.653 549.85 246.235 561.504 219.666 572.608C215.763 574.24 211.901 575.859 208.08 577.461Z" stroke="url(#paint0_linear_1022_4)" stroke-width="3"/>
<defs>
<linearGradient id="paint0_linear_1022_4" x1="500.003" y1="624.161" x2="502.295" y2="0.956786" gradientUnits="userSpaceOnUse">
<stop offset="0.4" stop-color="#E09146" stop-opacity="0"/>
<stop offset="1" stop-color="#E09146"/>
</linearGradient>
</defs>
</svg>
